<?xml version="1.0" standalone="no"?>
<!DOCTYPE svg PUBLIC "-//W3C//DTD SVG 20010904//EN"
 "http://www.w3.org/TR/2001/REC-SVG-20010904/DTD/svg10.dtd">
<svg version="1.0" xmlns="http://www.w3.org/2000/svg"
 width="200.000000pt" height="200.000000pt" viewBox="0 0 200.000000 200.000000"
 preserveAspectRatio="xMidYMid meet">

<g transform="translate(0.000000,200.000000) scale(0.100000,-0.100000)"
fill="#000000" stroke="none">
<path d="M822 1295 c-69 -58 -98 -170 -71 -270 17 -60 100 -139 168 -159 67
-20 94 -20 157 -1 161 48 234 241 143 378 -16 25 -42 53 -57 63 -21 14 -18 7
15 -30 47 -54 63 -96 63 -171 0 -67 -27 -122 -83 -172 -79 -69 -174 -80 -272
-33 -88 43 -148 166 -125 257 15 61 33 94 70 132 38 37 33 41 -8 6z"/>
<path d="M820 1255 c0 -8 93 -45 114 -45 11 0 -6 12 -39 25 -60 25 -75 29 -75
20z"/>
<path d="M1126 1245 c-15 -8 -42 -19 -60 -24 -24 -7 -26 -9 -9 -10 24 -1 101
26 118 41 15 14 -18 9 -49 -7z"/>
<path d="M818 1193 c7 -3 16 -2 19 1 4 3 -2 6 -13 5 -11 0 -14 -3 -6 -6z"/>
<path d="M972 1080 c0 -14 2 -19 5 -12 2 6 2 18 0 25 -3 6 -5 1 -5 -13z"/>
<path d="M1039 1050 c-10 -51 49 -156 73 -132 9 9 9 12 0 12 -14 0 -40 48 -56
104 -11 37 -13 39 -17 16z"/>
<path d="M918 1001 c-38 -79 -42 -91 -29 -91 6 0 11 5 11 11 0 7 14 34 30 61
19 30 27 54 23 62 -6 10 -17 -4 -35 -43z"/>
<path d="M410 755 c0 -25 5 -45 10 -45 6 0 10 7 10 15 0 8 7 15 15 15 8 0 15
-7 15 -15 0 -8 5 -15 10 -15 6 0 10 20 10 45 0 25 -4 45 -10 45 -5 0 -10 -9
-10 -20 0 -11 -7 -20 -15 -20 -8 0 -15 9 -15 20 0 11 -4 20 -10 20 -5 0 -10
-20 -10 -45z"/>
<path d="M510 755 c0 -25 5 -45 10 -45 6 0 9 20 8 45 0 25 -5 45 -10 45 -4 0
-8 -20 -8 -45z"/>
<path d="M550 755 c0 -25 5 -45 10 -45 6 0 10 20 10 45 0 25 -4 45 -10 45 -5
0 -10 -20 -10 -45z"/>
<path d="M634 786 c-3 -9 -12 -16 -19 -16 -7 0 -15 -7 -19 -15 -10 -26 5 -45
35 -45 27 0 29 3 29 39 0 42 -16 64 -26 37z"/>
<path d="M880 755 c0 -47 15 -62 23 -22 l4 22 2 -22 c2 -33 31 -30 31 3 0 17
-6 28 -20 31 -11 3 -20 12 -20 19 0 8 -4 14 -10 14 -5 0 -10 -20 -10 -45z"/>
<path d="M1003 793 c-20 -8 -15 -30 9 -47 l22 -16 -22 0 c-12 0 -22 -4 -22
-10 0 -5 11 -10 25 -10 32 0 45 28 22 45 -17 12 -23 27 -9 23 4 -2 8 2 10 7 3
11 -17 16 -35 8z"/>
<path d="M1156 793 c-3 -3 -6 -24 -6 -45 0 -27 4 -38 15 -38 11 0 15 11 15 39
0 38 -10 57 -24 44z"/>
<path d="M1340 756 c0 -25 5 -46 10 -46 12 0 10 79 -2 86 -4 3 -8 -15 -8 -40z"/>
<path d="M817 777 c-8 -21 4 -67 18 -67 14 0 26 46 18 67 -3 7 -11 13 -18 13
-7 0 -15 -6 -18 -13z"/>
<path d="M1277 777 c-8 -21 4 -67 18 -67 14 0 26 46 18 67 -3 7 -11 13 -18 13
-7 0 -15 -6 -18 -13z"/>
<path d="M680 740 c0 -16 5 -30 10 -30 6 0 10 7 10 16 0 9 8 23 18 30 15 12
14 13 -10 14 -24 0 -28 -4 -28 -30z"/>
<path d="M744 755 c-9 -23 3 -45 25 -45 20 0 37 32 26 50 -9 15 -45 12 -51 -5z"/>
<path d="M1074 756 c-10 -26 4 -48 28 -44 17 2 23 10 23 28 0 18 -6 26 -23 28
-13 2 -25 -3 -28 -12z m36 -16 c0 -5 -4 -10 -10 -10 -5 0 -10 5 -10 10 0 6 5
10 10 10 6 0 10 -4 10 -10z"/>
<path d="M1202 743 c2 -20 9 -29 26 -31 19 -3 22 1 22 27 0 36 -17 42 -23 9
l-4 -23 -2 23 c0 12 -6 22 -12 22 -6 0 -9 -12 -7 -27z"/>
<path d="M1384 756 c-10 -26 4 -48 28 -44 17 2 23 10 23 28 0 18 -6 26 -23 28
-13 2 -25 -3 -28 -12z m36 -16 c0 -5 -4 -10 -10 -10 -5 0 -10 5 -10 10 0 6 5
10 10 10 6 0 10 -4 10 -10z"/>
<path d="M1460 741 c0 -17 5 -31 10 -31 6 0 10 9 10 20 0 11 5 20 10 20 6 0
10 -9 10 -20 0 -11 5 -20 11 -20 6 0 9 12 7 28 -2 21 -9 28 -30 30 -25 3 -28
0 -28 -27z"/>
<path d="M1549 768 c-1 -2 -3 -16 -5 -31 -2 -24 0 -28 19 -25 30 4 36 58 6 58
-10 0 -20 -1 -20 -2z"/>
<path d="M477 673 c-4 -3 -7 -11 -7 -17 0 -6 5 -5 12 2 6 6 9 14 7 17 -3 3 -9
2 -12 -2z"/>
<path d="M681 664 c0 -11 3 -14 6 -6 3 7 2 16 -1 19 -3 4 -6 -2 -5 -13z"/>
<path d="M791 663 c0 -11 3 -13 6 -5 2 6 10 9 15 6 7 -4 8 -2 4 4 -11 18 -26
14 -25 -5z"/>
<path d="M1372 666 c1 -10 8 -17 13 -17 15 1 12 24 -3 29 -9 3 -13 -2 -10 -12z"/>
<path d="M1471 664 c0 -11 3 -14 6 -6 3 7 2 16 -1 19 -3 4 -6 -2 -5 -13z"/>
<path d="M515 660 c-3 -5 -1 -10 4 -10 6 0 11 5 11 10 0 6 -2 10 -4 10 -3 0
-8 -4 -11 -10z"/>
<path d="M560 660 c0 -5 5 -10 11 -10 5 0 7 5 4 10 -3 6 -8 10 -11 10 -2 0 -4
-4 -4 -10z"/>
<path d="M640 654 c0 -8 5 -12 10 -9 6 4 8 11 5 16 -9 14 -15 11 -15 -7z"/>
<path d="M720 660 c0 -5 5 -10 11 -10 5 0 7 5 4 10 -3 6 -8 10 -11 10 -2 0 -4
-4 -4 -10z"/>
<path d="M840 659 c0 -5 5 -7 10 -4 6 3 10 8 10 11 0 2 -4 4 -10 4 -5 0 -10
-5 -10 -11z"/>
<path d="M880 660 c0 -5 5 -10 10 -10 6 0 10 5 10 10 0 6 -4 10 -10 10 -5 0
-10 -4 -10 -10z"/>
<path d="M1010 659 c0 -5 5 -7 10 -4 6 3 10 8 10 11 0 2 -4 4 -10 4 -5 0 -10
-5 -10 -11z"/>
<path d="M1085 659 c-10 -15 3 -25 16 -12 7 7 7 13 1 17 -6 3 -14 1 -17 -5z"/>
<path d="M1130 659 c0 -5 5 -7 10 -4 6 3 10 8 10 11 0 2 -4 4 -10 4 -5 0 -10
-5 -10 -11z"/>
<path d="M1205 660 c-3 -5 1 -10 10 -10 9 0 13 5 10 10 -3 6 -8 10 -10 10 -2
0 -7 -4 -10 -10z"/>
<path d="M1250 660 c0 -5 5 -10 10 -10 6 0 10 5 10 10 0 6 -4 10 -10 10 -5 0
-10 -4 -10 -10z"/>
<path d="M1301 654 c0 -11 3 -14 6 -6 3 7 2 16 -1 19 -3 4 -6 -2 -5 -13z"/>
<path d="M1425 660 c-3 -5 1 -10 10 -10 9 0 13 5 10 10 -3 6 -8 10 -10 10 -2
0 -7 -4 -10 -10z"/>
<path d="M1540 660 c0 -5 5 -10 10 -10 6 0 10 5 10 10 0 6 -4 10 -10 10 -5 0
-10 -4 -10 -10z"/>
<path d="M1585 661 c-3 -5 -1 -12 5 -16 5 -3 10 1 10 9 0 18 -6 21 -15 7z"/>
</g>
</svg>
